<?xml version="1.0" encoding="UTF-8" standalone="no"?>
<!-- Created with Inkscape (http://www.inkscape.org/) -->

<svg
   xmlns:dc="http://purl.org/dc/elements/1.1/"
   xmlns:cc="http://creativecommons.org/ns#"
   xmlns:rdf="http://www.w3.org/1999/02/22-rdf-syntax-ns#"
   xmlns:svg="http://www.w3.org/2000/svg"
   xmlns="http://www.w3.org/2000/svg"
   version="1.1"
   width="554.44299"
   height="353.97491"
   id="svg3872">
  <defs
     id="defs3874" />
  <metadata
     id="metadata3877">
    <rdf:RDF>
      <cc:Work
         rdf:about="">
        <dc:format>image/svg+xml</dc:format>
        <dc:type
           rdf:resource="http://purl.org/dc/dcmitype/StillImage" />
        <dc:title></dc:title>
      </cc:Work>
    </rdf:RDF>
  </metadata>
  <g
     transform="translate(-72.7785,-355.37472)"
     id="layer1">
    <path
       d="m 249.64306,410.99001 c 16.1836,0 29.30474,13.12112 29.30474,29.30474 0,16.18363 -13.12114,29.30475 -29.30474,29.30475 -16.18363,0 -29.30475,-13.12112 -29.30475,-29.30475 0,-16.18362 13.12112,-29.30474 29.30475,-29.30474 m 101.23259,0 c 16.18363,0 29.30475,13.12112 29.30475,29.30474 0,16.18363 -13.12112,29.30475 -29.30475,29.30475 -16.18362,0 -29.30474,-13.12112 -29.30474,-29.30475 0,-16.18362 13.12112,-29.30474 29.30474,-29.30474 m -50.63967,-50.61529 c 16.18362,0 29.30474,13.12112 29.30474,29.30703 0,16.18134 -13.12112,29.30246 -29.30474,29.30246 -16.18363,0 -29.30475,-13.12112 -29.30475,-29.30246 0,-16.18591 13.12112,-29.30703 29.30475,-29.30703 m 0,101.22828 c 16.18362,0 29.30474,13.1234 29.30474,29.30702 0,16.18135 -13.12112,29.30247 -29.30474,29.30247 -16.18363,0 -29.30475,-13.12112 -29.30475,-29.30247 0,-16.18362 13.12112,-29.30702 29.30475,-29.30702"
       id="path48"
       style="fill:#006fb5;fill-opacity:1;fill-rule:nonzero;stroke:none" />
    <path
       d="m 95.937819,651.60223 c 0,-6.80228 -3.830983,-10.32314 -10.512402,-10.32314 l -7.634603,0 0,20.62119 6.923135,0 c 6.742987,0 11.22387,-3.27686 11.22387,-10.29805 m -4.788729,0 c 0,4.73172 -2.382964,7.14661 -7.08504,7.14661 l -1.701139,0 0,-14.32059 2.382963,0 c 4.362305,0 6.403216,3.03058 6.403216,7.17398 m 13.53842,-11.53172 -4.26425,0 0,3.42736 4.26425,0 0,-3.42736 z m 0,6.30516 -4.26425,0 0,15.52461 4.26425,0 0,-15.52461 z m 18.80147,8.84319 0,-0.95775 c 0,-4.6998 -1.97934,-8.19101 -6.95734,-8.19101 -4.48317,0 -7.57304,3.39772 -7.57304,8.0063 0,5.13307 2.81167,8.16137 8.0063,8.16137 1.85393,0 3.98833,-0.21664 5.71912,-0.83233 l -0.18471,-2.87552 c -1.2998,0.71375 -3.18565,1.05124 -4.67015,1.05124 -2.62696,0 -4.60631,-1.66921 -4.63823,-4.3623 l 10.29805,0 z m -3.89712,-2.28491 -6.40093,0 c 0,-1.82656 0.98967,-4.30302 3.37035,-4.30302 2.35104,0 3.03058,2.35332 3.03058,4.30302 m 23.37585,-11.65486 -4.5721,0 0,20.62119 4.5721,0 0,-20.62119 z m 21.36685,3.64172 0,-3.64172 -17.52903,0 0,3.64172 6.46251,0 0,16.97947 4.60402,0 0,-16.97947 6.4625,0 z m 8.07015,5.78752 -7.78738,0 0,3.21301 7.78738,0 0,-3.21301 z m 18.06035,5.25392 c 0,-3.21529 -2.00898,-4.63823 -4.72716,-5.72139 l -2.2279,-0.86653 c -1.36136,-0.52448 -3.156,-1.29752 -3.156,-2.72046 0,-2.03863 2.38297,-2.53346 4.08411,-2.53346 1.578,0 3.30878,0.2782 4.75908,0.89389 l 0.15506,-3.39772 c -1.69885,-0.46519 -3.42964,-0.64989 -5.19235,-0.64989 -3.77625,0 -8.37799,1.42065 -8.37799,5.9061 0,2.81166 1.82199,4.29845 4.26197,5.32005 l 2.10476,0.92582 c 1.4845,0.64762 3.68276,1.4845 3.68276,3.0625 0,2.19598 -2.04319,2.8778 -3.96097,2.8778 -2.01126,0 -3.98832,-0.31012 -5.78068,-1.23823 l -0.15506,3.52086 c 2.04091,0.6499 4.20268,0.89618 6.33709,0.89618 4.05217,0 8.19328,-1.75815 8.19328,-6.27552 m 18.02615,-0.74339 0,-0.95775 c 0,-4.6998 -1.97706,-8.19101 -6.95734,-8.19101 -4.48088,0 -7.57075,3.39772 -7.57075,8.0063 0,5.13307 2.81167,8.16137 8.00402,8.16137 1.8562,0 3.98832,-0.21664 5.72139,-0.83233 l -0.18699,-2.87552 c -1.29752,0.71375 -3.18336,1.05124 -4.66787,1.05124 -2.62924,0 -4.60858,-1.66921 -4.63823,-4.3623 l 10.29577,0 z m -3.89483,-2.28491 -6.40094,0 c 0,-1.82656 0.98967,-4.30302 3.37036,-4.30302 2.34875,0 3.03058,2.35332 3.03058,4.30302 m 20.00549,8.65392 -0.15507,-3.02374 c -1.05124,0.5222 -2.16405,0.77303 -3.33843,0.77303 -3.0625,0 -4.73172,-2.38296 -4.73172,-5.26076 0,-2.96901 1.76271,-5.10113 4.82294,-5.10113 1.11509,0 2.19597,0.30556 3.18564,0.77303 l 0.18471,-3.03058 c -1.42065,-0.43326 -2.93709,-0.64762 -4.42159,-0.64762 -4.91415,0 -8.34379,2.99638 -8.34379,8.0063 0,5.07378 3.15144,8.16137 8.22065,8.16137 1.54607,0 3.09215,-0.1527 4.57666,-0.6499 m 18.39784,0.31241 c -0.12314,-1.14246 -0.15506,-2.34876 -0.15506,-3.4935 l 0,-12.02883 -4.26197,0 0,8.53534 c 0,2.04319 -0.68183,4.23917 -3.09443,4.23917 -2.28947,0 -2.56768,-1.85849 -2.56768,-3.71241 l 0,-9.0621 -4.26425,0 0,10.02213 c 0,3.55278 1.48223,5.83769 5.222,5.83769 2.16633,0 3.99289,-0.98967 5.0122,-2.93481 l 0.0934,2.59732 4.01569,0 z m 14.56458,-15.70704 c -0.40362,-0.12314 -0.80496,-0.15287 -1.23823,-0.15287 -2.10248,0 -3.64856,1.66693 -4.36002,3.36579 l -0.0912,-2.9941 -4.01569,0 c 0.12314,1.14246 0.15288,2.28491 0.15288,3.42737 l 0,12.06075 4.26425,0 0,-6.92541 c 0,-2.41489 0.95774,-5.16727 3.83326,-5.16727 0.43327,0 0.89846,0.0617 1.32944,0.21891 l 0.12533,-3.83326 z m 7.91509,-6.12273 -4.26425,0 0,3.42736 4.26425,0 0,-3.42736 z m 0,6.30516 -4.26425,0 0,15.52461 4.26425,0 0,-15.52461 z m 14.31602,15.27605 -0.12314,-2.8436 c -0.52676,0.21664 -1.11281,0.34434 -1.70114,0.34434 -1.51415,0 -1.8562,-1.05352 -1.8562,-2.35332 l 0,-7.6118 3.46384,0 0,-2.80939 -3.46384,0 0,-4.54245 -4.26197,1.38873 0,3.15372 -2.78431,0 0,2.80939 2.78431,0 0,7.54795 c 0,3.24949 0.86425,5.50248 4.38739,5.50248 1.17437,0 2.44225,-0.21664 3.55506,-0.58605 m 17.34888,-15.27377 -4.20496,0 -3.18564,11.96726 -3.33843,-11.96726 -4.51509,0 5.59597,15.9898 -0.2782,0.86425 c -0.33977,1.01931 -1.26787,2.68853 -2.68853,2.68853 -0.58833,0 -1.14474,-0.12077 -1.70114,-0.30557 l -0.18699,2.93253 c 1.08317,0.21435 1.8562,0.37169 3.06251,0.37169 3.80362,0 5.03957,-3.09215 5.75103,-5.2562 l 5.68947,-17.28503 z m 38.49455,15.52233 0,-20.62119 -6.82964,0 -5.35198,15.67739 -5.41126,-15.67739 -6.82964,0 0,20.62119 4.04533,0 0,-17.6841 6.06345,17.6841 4.02025,0 6.06116,-17.6841 0.0319,17.6841 4.2004,0 z m 19.10931,-6.68142 0,-0.95775 c 0,-4.6998 -1.97934,-8.19101 -6.95734,-8.19101 -4.48088,0 -7.57075,3.39772 -7.57075,8.0063 0,5.13307 2.81166,8.16137 8.00402,8.16137 1.8562,0 3.98832,-0.21664 5.72139,-0.83233 l -0.18699,-2.87552 c -1.29752,0.71375 -3.18337,1.05124 -4.66787,1.05124 -2.62924,0 -4.60858,-1.66921 -4.63823,-4.3623 l 10.29577,0 z m -3.89483,-2.28491 -6.40094,0 c 0,-1.82656 0.98967,-4.30302 3.37035,-4.30302 2.34876,0 3.03059,2.35332 3.03059,4.30302 m 19.01353,4.36002 c 0,-5.28812 -7.82159,-4.26881 -7.82159,-6.74526 0,-1.54608 1.64185,-1.85165 2.81623,-1.85165 1.36137,0 2.87552,0.30557 4.11147,0.80041 l 0.18471,-2.7501 c -1.45031,-0.42871 -3.05795,-0.70691 -4.57666,-0.70691 -2.8436,0 -6.58337,1.14245 -6.58337,4.63594 0,5.04185 7.82388,3.7717 7.82388,6.9277 0,1.48223 -1.82884,1.97706 -3.06251,1.97706 -1.54379,0 -3.15372,-0.36941 -4.51281,-1.08088 l -0.18471,2.96445 c 1.66466,0.52676 3.42737,0.77304 5.19236,0.77304 3.12179,0 6.613,-1.32717 6.613,-4.9438 m 15.09134,0 c 0,-5.28812 -7.82159,-4.26881 -7.82159,-6.74526 0,-1.54608 1.63957,-1.85165 2.81395,-1.85165 1.36365,0 2.8778,0.30557 4.11147,0.80041 l 0.18699,-2.7501 c -1.45259,-0.42871 -3.06023,-0.70691 -4.57438,-0.70691 -2.85044,0 -6.58565,1.14245 -6.58565,4.63594 0,5.04185 7.82388,3.7717 7.82388,6.9277 0,1.48223 -1.82656,1.97706 -3.06479,1.97706 -1.54608,0 -3.15372,-0.36941 -4.51281,-1.08088 l -0.18471,2.96445 c 1.66922,0.52676 3.42965,0.77304 5.19236,0.77304 3.12179,0 6.61528,-1.32717 6.61528,-4.9438 m 17.80952,-2.07511 0,-0.95775 c 0,-4.6998 -1.97706,-8.19101 -6.95734,-8.19101 -4.48089,0 -7.57076,3.39772 -7.57076,8.0063 0,5.13307 2.81167,8.16137 8.0063,8.16137 1.85393,0 3.98833,-0.21664 5.71911,-0.83233 l -0.1847,-2.87552 c -1.30208,0.71375 -3.18565,1.05124 -4.67015,1.05124 -2.62697,0 -4.60859,-1.66921 -4.63823,-4.3623 l 10.29577,0 z m -3.89712,-2.28491 -6.39865,0 c 0,-1.82656 0.98739,-4.30302 3.37035,-4.30302 2.35104,0 3.0283,2.35332 3.0283,4.30302 m 32.78,8.96633 c -0.12314,-1.14246 -0.15506,-2.34876 -0.15506,-3.4935 l 0,-12.02883 -4.26425,0 0,8.53534 c 0,2.04319 -0.67955,4.23917 -3.09444,4.23917 -2.28947,0 -2.56995,-1.85849 -2.56995,-3.71241 l 0,-9.0621 -4.26197,0 0,10.02213 c 0,3.55278 1.48451,5.83769 5.22428,5.83769 2.16405,0 3.99061,-0.98967 5.00992,-2.93481 l 0.0934,2.59732 4.01797,0 z m 19.23245,0 0,-10.05178 c 0,-3.55278 -1.51415,-5.7784 -5.2562,-5.7784 -2.16405,0 -4.02253,0.95547 -5.04185,2.90517 l -0.0615,-2.59732 -4.01797,0 c 0.12533,1.14245 0.15506,2.31911 0.15506,3.46157 l 0,12.06076 4.26653,0 0,-8.56499 c 0,-2.04319 0.67727,-4.20952 3.09215,-4.20952 2.29175,0 2.5996,1.85848 2.5996,3.7124 l 0,9.06211 4.26425,0 z m 19.8185,0 c -0.0936,-1.26788 -0.12314,-2.56312 -0.12314,-4.3281 l 0,-17.96458 -4.26425,0 0,9.33346 c -0.77076,-1.822 -2.72045,-2.87096 -4.67015,-2.87096 -4.66787,0 -6.48987,3.86291 -6.48987,8.0063 0,4.17532 1.75815,8.16137 6.51951,8.16137 2.13669,0 3.96097,-0.92354 4.92099,-2.87324 l 0.15507,2.53575 3.95184,0 z m -4.29389,-7.79195 c 0,2.13212 -0.67955,5.16498 -3.34071,5.16498 -2.78431,0 -3.34071,-2.93936 -3.34071,-5.16498 0,-2.2279 0.5222,-5.04185 3.31106,-5.04185 2.69081,0 3.37036,2.87552 3.37036,5.04185 m 38.21406,7.79195 -9.42924,-10.97532 8.68813,-9.64587 -5.41127,0 -7.45445,8.90248 0,-8.90248 -4.56754,0 0,20.62119 4.56754,0 0,-9.83286 7.88772,9.83286 5.71911,0 z m 17.93493,-7.82388 c 0,-5.13534 -3.11723,-8.0063 -8.12716,-8.0063 -4.76592,0 -8.12944,2.93253 -8.12944,8.0063 0,4.98256 2.99638,8.16137 8.12944,8.16137 5.04185,0 8.12716,-3.15144 8.12716,-8.16137 m -4.56981,0 c 0,2.5996 -0.86654,5.26076 -3.55735,5.26076 -2.66116,0 -3.55962,-2.69309 -3.55962,-5.26076 0,-2.34875 0.86881,-5.10113 3.55962,-5.10113 2.78431,0 3.55735,2.71817 3.55735,5.10113 m 23.06343,7.82388 0,-10.05178 c 0,-3.55278 -1.51415,-5.7784 -5.2562,-5.7784 -2.16177,0 -4.02253,0.95547 -5.04185,2.90517 l -0.0593,-2.59732 -4.02025,0 c 0.1277,1.14245 0.15506,2.31911 0.15506,3.46157 l 0,12.06076 4.26653,0 0,-8.56499 c 0,-2.04319 0.67727,-4.20952 3.09443,-4.20952 2.28947,0 2.5996,1.85848 2.5996,3.7124 l 0,9.06211 4.26197,0 z m 19.69764,-0.99196 0,-14.53037 -4.14111,0 0,2.56311 c -0.95775,-1.94514 -2.7843,-2.87096 -4.91871,-2.87096 -4.57438,0 -6.36673,3.86291 -6.36673,8.0063 0,3.93132 1.79235,7.82388 6.30516,7.82388 1.97934,0 3.80362,-0.99196 4.85486,-2.65661 l 0,1.66465 c 0,3.12408 -1.57572,5.07606 -4.978,5.07606 -1.67149,0 -3.30878,-0.40362 -4.72944,-1.14474 l -0.18699,3.24494 c 1.88585,0.58377 3.86291,0.8346 5.84453,0.8346 5.22656,0 8.31643,-2.68852 8.31643,-8.01086 m -4.17303,-6.79999 c 0,2.10248 -0.70919,4.82749 -3.37036,4.82749 -2.75466,0 -3.31106,-2.72501 -3.31106,-4.82749 0,-2.2279 0.52676,-5.04185 3.31106,-5.04185 2.69081,0 3.37036,2.87552 3.37036,5.04185 m 18.89039,-7.91509 c -0.40134,-0.12314 -0.80268,-0.15287 -1.23594,-0.15287 -2.10248,0 -3.64856,1.66693 -4.36003,3.36579 l -0.0934,-2.9941 -4.01569,0 c 0.12314,1.14246 0.15506,2.28491 0.15506,3.42737 l 0,12.06075 4.26197,0 0,-6.92541 c 0,-2.41489 0.95775,-5.16727 3.83554,-5.16727 0.43099,0 0.8939,0.0617 1.32945,0.21891 l 0.12314,-3.83326 z m 16.54393,9.02562 0,-0.95775 c 0,-4.6998 -1.97707,-8.19101 -6.95506,-8.19101 -4.48317,0 -7.57304,3.39772 -7.57304,8.0063 0,5.13307 2.81167,8.16137 8.00402,8.16137 1.8562,0 3.99061,-0.21664 5.72139,-0.83233 l -0.1847,-2.87552 c -1.2998,0.71375 -3.18565,1.05124 -4.67016,1.05124 -2.62696,0 -4.6063,-1.66921 -4.63822,-4.3623 l 10.29577,0 z m -3.89712,-2.28491 -6.39865,0 c 0,-1.82656 0.98739,-4.30302 3.37035,-4.30302 2.35104,0 3.0283,2.35332 3.0283,4.30302 m 19.0181,4.36002 c 0,-5.28812 -7.82159,-4.26881 -7.82159,-6.74526 0,-1.54608 1.63957,-1.85165 2.81623,-1.85165 1.36136,0 2.87552,0.30557 4.10918,0.80041 l 0.18699,-2.7501 c -1.45486,-0.42871 -3.05794,-0.70691 -4.57437,-0.70691 -2.84816,0 -6.58565,1.14245 -6.58565,4.63594 0,5.04185 7.82387,3.7717 7.82387,6.9277 0,1.48223 -1.82883,1.97706 -3.06706,1.97706 -1.54608,0 -3.15372,-0.36941 -4.51053,-1.08088 l -0.18471,2.96445 c 1.66922,0.52676 3.43192,0.77304 5.19235,0.77304 3.12636,0 6.61529,-1.32717 6.61529,-4.9438 m 15.09134,0 c 0,-5.28812 -7.82387,-4.26881 -7.82387,-6.74526 0,-1.54608 1.63957,-1.85165 2.81623,-1.85165 1.36136,0 2.87552,0.30557 4.11146,0.80041 l 0.18471,-2.7501 c -1.45486,-0.42871 -3.05794,-0.70691 -4.57666,-0.70691 -2.84587,0 -6.58336,1.14245 -6.58336,4.63594 0,5.04185 7.82159,3.7717 7.82159,6.9277 0,1.48223 -1.82656,1.97706 -3.06478,1.97706 -1.5438,0 -3.14688,-0.36941 -4.50825,-1.08088 l -0.18699,2.96445 c 1.66693,0.52676 3.42964,0.77304 5.19007,0.77304 3.12636,0 6.61985,-1.32717 6.61985,-4.9438 m -530.149545,21.08023 0,-1.66465 -13.942044,0 0,1.66465 6.029238,0 0,18.95653 1.851643,0 0,-18.95653 6.061163,0 z m 15.770885,18.95653 0,-9.39959 c 0,-3.55735 -1.32716,-6.27552 -5.13078,-6.27552 -2.2279,0 -3.744334,0.95546 -4.76593,2.90288 l 0,-9.52045 -1.664653,0 0,22.29268 1.664653,0 0,-8.22522 c 0,-2.93936 1.11509,-5.84453 4.54929,-5.84453 3.12408,0 3.68048,2.31912 3.68048,4.91643 l 0,9.15332 1.66694,0 z m 17.40817,-7.2059 0,-0.92582 c 0,-3.92676 -1.67149,-7.54339 -5.84453,-7.54339 -4.05218,0 -6.27324,4.17532 -6.27324,7.94473 0,4.45352 1.91322,8.06787 6.82965,8.06787 1.45258,0 3.15372,-0.244 4.48316,-0.8004 l -0.18471,-1.88585 c -1.11281,0.6499 -2.96901,1.11509 -4.26881,1.11509 -3.43192,0 -5.03957,-2.8778 -5.03957,-5.97223 l 10.29805,0 z m -1.82428,-1.47995 -8.47377,0 c 0,-2.19825 1.54608,-5.41582 4.48317,-5.41582 2.93936,0 3.9906,2.90744 3.9906,5.41582 m 18.9839,-11.93533 -1.85165,0 0,20.62118 1.85165,0 0,-20.62118 z m 18.52326,1.66465 0,-1.66465 -13.94205,0 0,1.66465 6.02924,0 0,18.95653 1.85165,0 0,-18.95653 6.06116,0 z m 26.06665,13.51562 c 0,-2.78431 -2.12984,-4.26653 -4.29617,-5.47512 l -2.13441,-1.2063 c -1.73306,-0.95775 -3.06251,-1.94514 -3.06251,-3.61663 0,-2.5996 2.19598,-3.46157 4.48545,-3.46157 1.17438,0 2.69081,0.18471 3.74205,0.77076 l 0.18471,-1.85392 c -1.23595,-0.46291 -2.53575,-0.64762 -3.86519,-0.64762 -3.21757,0 -6.46023,1.75815 -6.46023,5.28356 0,2.38297 1.72851,3.74205 3.644,4.82522 l 2.13668,1.20858 c 1.97935,1.11053 3.68049,2.19598 3.68049,4.14111 0,2.84588 -1.97935,4.08411 -4.67244,4.08411 -1.60764,0 -3.12407,-0.27821 -4.48088,-1.17666 l -0.15506,2.04091 c 1.42065,0.64762 2.99637,0.86197 4.54473,0.86197 3.68048,0 6.70878,-2.09792 6.70878,-5.7784 m 16.512,-1.76499 0,-0.92582 c 0,-3.92676 -1.6715,-7.54339 -5.84453,-7.54339 -4.05218,0 -6.27324,4.17532 -6.27324,7.94473 0,4.45352 1.91321,8.06787 6.82964,8.06787 1.45258,0 3.15372,-0.244 4.48317,-0.8004 l -0.18471,-1.88585 c -1.11281,0.6499 -2.96902,1.11509 -4.26881,1.11509 -3.43193,0 -5.03957,-2.8778 -5.03957,-5.97223 l 10.29805,0 z m -1.82428,-1.47995 -8.47377,0 c 0,-2.19825 1.54607,-5.41582 4.48316,-5.41582 2.93937,0 3.99061,2.90744 3.99061,5.41582 m 17.00455,8.43729 -0.15287,-1.69658 c -1.08317,0.40134 -2.2279,0.67954 -3.40228,0.67954 -3.64856,0 -5.56633,-3.12179 -5.56633,-6.46478 0,-3.58471 1.88585,-6.33937 5.72139,-6.33937 1.11281,0 2.25755,0.30785 3.24722,0.77304 l 0.15287,-1.7285 c -1.14245,-0.40362 -2.38068,-0.6499 -3.58699,-0.6499 -4.63822,0 -7.35412,3.49349 -7.35412,7.94473 0,4.33038 2.50155,8.06787 7.13977,8.06787 1.29752,0 2.56539,-0.1505 3.80134,-0.58605 m 16.57585,0.24856 c -0.12551,-1.20403 -0.15507,-2.43997 -0.15507,-3.64628 l 0,-11.7187 -1.66693,0 0,8.22749 c 0,2.93709 -1.08317,5.87189 -4.51737,5.87189 -3.12407,0 -3.64855,-2.34875 -3.64855,-4.94835 l 0,-9.15103 -1.66694,0 0,9.39959 c 0,3.55506 1.11053,6.30288 5.09886,6.30288 2.28947,0 3.83782,-1.04668 4.95063,-2.9941 l 0.0934,2.65661 1.51187,0 z m 12.89308,-15.55197 c -0.43326,-0.12314 -0.89617,-0.12314 -1.32944,-0.12314 -1.8562,0 -3.40228,1.63501 -3.98833,3.18108 l -0.12533,-2.87323 -1.50959,0 c 0.12314,1.2063 0.1527,2.44225 0.1527,3.64627 l 0,11.72099 1.66693,0 0,-7.85352 c 0,-2.41033 0.58833,-6.06344 3.80362,-6.06344 0.40134,0 0.80268,0.0615 1.2063,0.18699 l 0.12314,-1.822 z m 6.06117,-5.87418 -1.66694,0 0,2.46962 1.66694,0 0,-2.46962 z m 0,6.05661 -1.66694,0 0,15.36726 1.66694,0 0,-15.36726 z m 12.92501,15.27604 -0.12552,-1.60536 c -0.5564,0.24856 -1.1128,0.43326 -1.73078,0.43326 -1.63955,0 -2.00898,-1.23822 -2.00898,-2.62924 l 0,-9.98792 3.49349,0 0,-1.48222 -3.49349,0 0,-4.1434 -1.66692,0.58833 0,3.55507 -2.93709,0 0,1.48222 2.93709,0 0,9.21717 c 0,2.68853 0.27818,5.00308 3.33613,5.00308 0.71147,0 1.51415,-0.1505 2.19597,-0.43099 m 15.05942,-15.27148 -1.79235,0 -4.39195,13.63875 -4.36003,-13.63875 -1.88585,0 5.31778,15.89402 -0.33978,1.08316 c -0.33977,1.11053 -1.17438,3.80362 -2.93708,3.80362 -0.46291,0 -0.86654,-0.12532 -1.2998,-0.28048 l -0.18471,1.66693 c 0.61797,0.15288 0.86653,0.21664 1.51415,0.21664 1.9497,0 3.21757,-1.63729 4.05218,-4.07726 l 6.30744,-18.30663 z m 24.57986,15.36498 0,-1.66694 -8.34835,0 0,-8.134 7.57532,0 0,-1.60536 -7.57532,0 0,-7.55023 8.00858,0 0,-1.66465 -9.86022,0 0,20.62118 10.19999,0 z m 15.89631,0 -5.19463,-8.03823 4.72944,-7.32675 -1.94742,0 -3.6782,6.02923 -3.74205,-6.02923 -2.07284,0 4.82522,7.32675 -5.3497,8.03823 1.97934,0 4.29618,-6.8 4.05218,6.8 2.10248,0 z m 16.91105,-7.73038 c 0,-4.08182 -1.51187,-7.94473 -6.21394,-7.94473 -1.97934,0 -4.05218,1.23367 -4.85486,3.0283 l -0.12314,-2.72045 -1.57344,0 c 0.0912,1.79007 0.15287,3.5847 0.15287,5.34741 l 0,16.69671 1.66694,0 0,-9.18068 c 0.77304,1.79463 2.72273,2.84131 4.73172,2.84131 4.54701,0 6.21395,-4.13883 6.21395,-8.06787 m -1.81972,0 c 0,2.97129 -0.9281,6.46478 -4.54701,6.46478 -3.43421,0 -4.64051,-3.61891 -4.64051,-6.46478 0,-2.84587 1.26787,-6.33937 4.64051,-6.33937 3.68048,0 4.54701,3.30879 4.54701,6.33937 m 20.0625,0 c 0,-4.39195 -2.19142,-7.94473 -6.95506,-7.94473 -4.48545,0 -6.95506,3.70784 -6.95506,7.94473 0,4.30302 2.25298,8.06787 6.95506,8.06787 4.67015,0 6.95506,-3.76485 6.95506,-8.06787 m -1.81972,0 c 0,3.12408 -1.51643,6.46478 -5.13534,6.46478 -3.61892,0 -5.13535,-3.37035 -5.13535,-6.46478 0,-3.15372 1.51643,-6.33937 5.13535,-6.33937 3.71468,0 5.13534,3.09215 5.13534,6.33937 m 27.08369,7.73038 c -0.15507,-1.04668 -0.21664,-2.16177 -0.21664,-3.18337 l 0,-6.79999 c 0,-3.6212 -1.41837,-5.69175 -5.1627,-5.69175 -1.32945,0 -3.27914,0.46519 -4.48773,1.04896 l 0.18699,1.73078 c 1.33172,-0.89389 2.78658,-1.2063 4.36002,-1.2063 2.63381,0 3.43421,1.578 3.43421,3.99289 l 0,0.80268 -1.05124,0 c -4.82294,0 -8.53078,1.38873 -8.53078,5.31777 0,2.94165 2.2507,4.32582 4.97572,4.32582 1.91777,0 3.95868,-1.01476 4.76364,-2.84131 l 0.0936,2.50382 1.63501,0 z m -1.88585,-6.86613 c 0,3.03286 -1.01704,5.63246 -4.48317,5.63246 -1.7627,0 -3.27913,-0.89846 -3.27913,-2.78658 0,-3.58471 4.42159,-3.80362 7.36324,-3.80362 l 0.39906,0 0,0.95774 z m 19.54486,6.86613 0,-9.39959 c 0,-3.55735 -1.14474,-6.27552 -5.13079,-6.27552 -2.28946,0 -3.87203,1.04896 -4.98484,2.99638 l -0.0912,-2.68853 -1.51187,0 c 0.12533,1.2063 0.15506,2.44225 0.15506,3.64627 l 0,11.72099 1.66466,0 0,-8.22522 c 0,-2.93936 1.11509,-5.84453 4.54929,-5.84453 3.12408,0 3.68048,2.31912 3.68048,4.91643 l 0,9.15332 1.66922,0 z m 18.05579,0 c -0.0936,-1.69886 -0.15507,-3.4 -0.15507,-5.03729 l 0,-17.25539 -1.66693,0 0,9.52045 c -0.77304,-1.79235 -2.72273,-2.90288 -4.64051,-2.90288 -4.63822,0 -6.30516,3.86291 -6.30516,7.94473 0,3.92904 1.66694,8.06787 6.21623,8.06787 2.13212,0 3.80362,-0.95547 4.79101,-2.90288 l 0.21663,2.56539 1.5438,0 z m -1.76043,-7.73038 c 0,2.84587 -1.2063,6.46478 -4.64051,6.46478 -3.61889,0 -4.54701,-3.49349 -4.54701,-6.46478 0,-3.03058 0.86881,-6.33937 4.54701,-6.33937 3.37036,0 4.64051,3.4935 4.64051,6.33937 m 32.15746,7.14661 -0.18699,-1.73307 c -1.42064,0.71147 -3.12179,0.92811 -4.70207,0.92811 -5.44091,0 -8.40993,-3.71241 -8.40993,-8.90704 0,-5.04185 3.05795,-8.90476 8.40993,-8.90476 1.45486,0 3.3407,0.2782 4.63822,0.92354 l 0.18699,-1.822 c -1.2998,-0.58604 -3.33843,-0.83232 -4.76137,-0.83232 -6.27779,0 -10.4189,4.57438 -10.4189,10.63554 0,6.33936 3.95412,10.63326 10.4189,10.63326 1.48223,0 3.52314,-0.21435 4.82522,-0.92126 m 18.02387,-7.14661 c 0,-4.39195 -2.19142,-7.94473 -6.95506,-7.94473 -4.48773,0 -6.95506,3.70784 -6.95506,7.94473 0,4.30302 2.25526,8.06787 6.95506,8.06787 4.67015,0 6.95506,-3.76485 6.95506,-8.06787 m -1.81972,0 c 0,3.12408 -1.51643,6.46478 -5.13534,6.46478 -3.61891,0 -5.13535,-3.37035 -5.13535,-6.46478 0,-3.15372 1.51644,-6.33937 5.13535,-6.33937 3.7124,0 5.13534,3.09215 5.13534,6.33937 m 18.67377,7.73038 0,-9.39959 c 0,-3.55735 -1.14018,-6.27552 -5.13079,-6.27552 -2.28947,0 -3.86747,1.04896 -4.98256,2.99638 l -0.0912,-2.68853 -1.51187,0 c 0.12314,1.2063 0.15287,2.44225 0.15287,3.64627 l 0,11.72099 1.66694,0 0,-8.22522 c 0,-2.93936 1.11509,-5.84453 4.54701,-5.84453 3.12636,0 3.68276,2.31912 3.68276,4.91643 l 0,9.15332 1.66694,0 z m 17.90072,-0.71147 0,-14.65579 -1.54379,0 0,2.59503 c -0.98739,-1.94742 -2.62696,-2.90288 -4.79329,-2.90288 -4.54474,0 -6.27324,3.86291 -6.27324,7.94473 0,3.74205 1.66466,7.73038 6.21395,7.73038 1.88813,0 3.83326,-1.04896 4.734,-2.7501 l 0,2.07283 c 0,3.43193 -1.33172,6.09309 -5.13762,6.09309 -1.51643,0 -3.06251,-0.40362 -4.39195,-1.08544 l -0.18471,1.88584 c 1.45258,0.46292 2.97129,0.80269 4.48546,0.80269 4.94834,0 6.89119,-3.08987 6.89119,-7.73038 m -1.60308,-7.01891 c 0,2.69309 -1.2063,6.12501 -4.64051,6.12501 -3.61889,0 -4.54701,-3.30878 -4.54701,-6.12501 0,-3.03058 0.89618,-6.33937 4.58122,-6.33937 3.36807,0 4.6063,3.4935 4.6063,6.33937 m 14.65351,-7.82159 c -0.43554,-0.12314 -0.89845,-0.12314 -1.32944,-0.12314 -1.85848,0 -3.40228,1.63501 -3.99061,3.18108 l -0.12314,-2.87323 -1.51187,0 c 0.12533,1.2063 0.15507,2.44225 0.15507,3.64627 l 0,11.72099 1.66693,0 0,-7.85352 c 0,-2.41033 0.58833,-6.06344 3.80362,-6.06344 0.40134,0 0.8004,0.0615 1.20402,0.18699 l 0.12533,-1.822 z m 15.18256,8.34607 0,-0.92582 c 0,-3.92676 -1.66694,-7.54339 -5.84453,-7.54339 -4.0499,0 -6.27096,4.17532 -6.27096,7.94473 0,4.45352 1.90865,8.06787 6.82736,8.06787 1.45486,0 3.15372,-0.244 4.48544,-0.8004 l -0.18927,-1.88585 c -1.11052,0.6499 -2.96445,1.11509 -4.26653,1.11509 -3.42964,0 -5.03728,-2.8778 -5.03728,-5.97223 l 10.29577,0 z m -1.82428,-1.47995 -8.47149,0 c 0,-2.19825 1.54607,-5.41582 4.48316,-5.41582 2.93709,0 3.98833,2.90744 3.98833,5.41582 m 15.02749,4.66788 c 0,-5.13535 -7.3564,-4.60859 -7.3564,-7.57532 0,-1.9839 1.70114,-2.47646 3.27686,-2.47646 1.01931,0 2.35103,0.28049 3.27914,0.70919 l 0.18242,-1.63501 c -1.11053,-0.43326 -2.41032,-0.67954 -3.61663,-0.67954 -2.44681,0 -4.91415,1.26559 -4.91415,4.08182 0,4.63823 7.32904,3.6782 7.32904,7.57532 0,1.8562 -1.67149,2.75237 -3.34299,2.75237 -1.36137,0 -2.68853,-0.33977 -3.89255,-0.95774 l -0.18699,1.88357 c 1.32716,0.52676 2.74782,0.67726 4.17304,0.67726 2.59959,0 5.06921,-1.57116 5.06921,-4.35546 m 13.08007,0 c 0,-5.13535 -7.36096,-4.60859 -7.36096,-7.57532 0,-1.9839 1.70342,-2.47646 3.28142,-2.47646 1.0216,0 2.35332,0.28049 3.27686,0.70919 l 0.18471,-1.63501 c -1.10825,-0.43326 -2.41033,-0.67954 -3.61663,-0.67954 -2.44454,0 -4.91187,1.26559 -4.91187,4.08182 0,4.63823 7.32675,3.6782 7.32675,7.57532 0,1.8562 -1.67149,2.75237 -3.34299,2.75237 -1.36136,0 -2.69081,-0.33977 -3.89483,-0.95774 l -0.18243,1.88357 c 1.32717,0.52676 2.74554,0.67726 4.17076,0.67726 2.59731,0 5.06921,-1.57116 5.06921,-4.35546 M 305.05731,579.96055 c 0,-18.28611 12.62856,-19.33735 37.09897,-19.33735 13.81663,0 21.44667,0.3945 26.31065,5.39074 l 0,-5.9175 c 0,-6.5788 -1.97022,-8.9458 -11.835,-8.9458 l -14.87015,0 c -7.36552,0 -9.47256,0.65674 -9.73252,5.39302 l -24.47041,0 c 0,-18.15383 8.9458,-21.17985 30.25793,-21.17985 l 29.33669,0 c 17.36483,0 26.57743,8.28677 26.57743,24.07361 l 0,44.07228 -23.94593,0 0,-7.63005 c -6.97102,7.23555 -9.60482,8.68357 -22.23339,8.68357 l -17.23486,0 c -15.39235,0.12989 -25.25941,-3.28826 -25.25941,-19.07511 l 0,-5.52756 z m 44.99353,8.81582 c 17.36485,0 18.94513,-2.63152 18.94513,-7.10556 0,-4.99852 -1.44802,-6.84104 -15.39235,-6.84104 l -11.18282,0 c -10.65606,0 -12.89308,2.36928 -12.89308,7.89228 0,4.34406 3.42052,6.05432 13.28758,6.05432 l 7.23554,0 z M 228.7569,582.59276 c 0,3.68276 1.31804,6.18431 15.65686,6.18431 l 8.94581,0 c 11.9718,0 14.99782,-0.92127 14.99782,-5.00081 0,-3.945 -1.97478,-5.52528 -10.92056,-5.52528 l -23.67913,0 c -23.54915,-0.13226 -30.52247,-5.26076 -30.52247,-23.68141 0,-16.7081 13.41986,-19.20508 30.78469,-19.20508 l 17.62939,0 c 33.01941,0 38.80921,4.60174 39.07373,20.38858 l -25.26169,0 c -1.31348,-3.945 -3.68276,-4.60174 -18.81285,-4.60174 -14.60334,0 -17.36484,0.3945 -17.36484,4.99624 0,2.89604 1.97478,3.94956 15.1301,3.94956 l 17.49709,0 c 30.25565,0 32.49495,10.12931 32.49495,22.10113 0,17.75935 -7.10328,22.36565 -35.91545,22.36565 l -23.94365,0 c -23.28691,0 -31.83821,-5.3953 -31.83821,-21.97115 l 26.04841,0 z m -100.85521,-66.28581 -12.63085,0 0,-18.15613 12.63085,0 0,-15.78457 25.25941,0 0,15.78457 39.20373,0 0,18.15613 -39.20373,0 0,25.78389 c 0,5.00078 3.68276,6.0543 9.7348,6.0543 8.1568,0 10.39382,-1.8448 10.39382,-8.0268 l 0,-4.47405 22.10113,0 0,8.15907 c 0,12.75854 -8.41904,22.49791 -28.54767,22.49791 l -9.99932,0 c -15.52461,0 -28.94217,-4.87083 -28.94217,-23.42145 l 0,-26.57287 z m -50.12319,-26.57769 25.25941,0 0,-19.73185 -25.25941,0 0,19.73185 z m 0,75.51827 25.25941,0 0,-67.09467 -25.25941,0 0,67.09467 z"
       id="path56"
       style="fill:#1a171b;fill-opacity:1;fill-rule:nonzero;stroke:none" />
  </g>
</svg>
